<?xml version="1.0" standalone="no"?>
<svg xmlns:xlink="http://www.w3.org/1999/xlink" id="wave" style="transform:rotate(180deg); transition: 0.3s" viewBox="0 0 1440 100" version="1.1" xmlns="http://www.w3.org/2000/svg"><defs><linearGradient id="sw-gradient-0" x1="0" x2="0" y1="1" y2="0"><stop stop-color="rgba(173, 39, 66, 1)" offset="0%"/><stop stop-color="rgba(41, 1, 10, 1)" offset="100%"/></linearGradient></defs><path style="transform:translate(0, 0px); opacity:1" fill="url(#sw-gradient-0)" d="M0,90L80,76.7C160,63,320,37,480,31.7C640,27,800,43,960,48.3C1120,53,1280,47,1440,45C1600,43,1760,47,1920,45C2080,43,2240,37,2400,35C2560,33,2720,37,2880,35C3040,33,3200,27,3360,26.7C3520,27,3680,33,3840,35C4000,37,4160,33,4320,41.7C4480,50,4640,70,4800,78.3C4960,87,5120,83,5280,73.3C5440,63,5600,47,5760,38.3C5920,30,6080,30,6240,30C6400,30,6560,30,6720,33.3C6880,37,7040,43,7200,40C7360,37,7520,23,7680,26.7C7840,30,8000,50,8160,63.3C8320,77,8480,83,8640,80C8800,77,8960,63,9120,48.3C9280,33,9440,17,9600,15C9760,13,9920,27,10080,33.3C10240,40,10400,40,10560,46.7C10720,53,10880,67,11040,75C11200,83,11360,87,11440,88.3L11520,90L11520,100L11440,100C11360,100,11200,100,11040,100C10880,100,10720,100,10560,100C10400,100,10240,100,10080,100C9920,100,9760,100,9600,100C9440,100,9280,100,9120,100C8960,100,8800,100,8640,100C8480,100,8320,100,8160,100C8000,100,7840,100,7680,100C7520,100,7360,100,7200,100C7040,100,6880,100,6720,100C6560,100,6400,100,6240,100C6080,100,5920,100,5760,100C5600,100,5440,100,5280,100C5120,100,4960,100,4800,100C4640,100,4480,100,4320,100C4160,100,4000,100,3840,100C3680,100,3520,100,3360,100C3200,100,3040,100,2880,100C2720,100,2560,100,2400,100C2240,100,2080,100,1920,100C1760,100,1600,100,1440,100C1280,100,1120,100,960,100C800,100,640,100,480,100C320,100,160,100,80,100L0,100Z"/></svg>